<svg xmlns="http://www.w3.org/2000/svg" width="64" height="88.1" viewBox="0 0 64 88.1">
  <defs>
    <style>
      .\37 a075169-d753-4cc3-95f9-03f8f44c5eb7 {
        fill: #333;
      }
    </style>
  </defs>
  <title>delete</title>
  <g id="e0a5304c-ffd1-44fd-9253-4ff238acaa0e" data-name="Layer 2">
    <g id="b0e0ad49-b1ac-4114-a872-dae6552de4fc" data-name="Layer 2">
      <g id="6cbddba7-126b-4aff-92f7-1f5e6e4efdf3" data-name="trash can">
        <g>
          <path class="7a075169-d753-4cc3-95f9-03f8f44c5eb7" d="M59.9,23.6V76.1c0,6.6-5.8,12-13,12H17.1c-7.2,0-13-5.4-13-12V23.6a1,1,0,0,1,1-.9H58.9A1,1,0,0,1,59.9,23.6Zm-41.8,11A2.8,2.8,0,0,0,15.3,32h0a2.8,2.8,0,0,0-2.9,2.6V76.1a2.7,2.7,0,0,0,2.9,2.6h0a2.7,2.7,0,0,0,2.8-2.6Zm16.7,0A2.7,2.7,0,0,0,32,32h0a2.7,2.7,0,0,0-2.8,2.6V76.1A2.6,2.6,0,0,0,32,78.7h0a2.6,2.6,0,0,0,2.8-2.6Zm16.8,0A2.8,2.8,0,0,0,48.7,32h0a2.8,2.8,0,0,0-2.8,2.6V76.1a2.7,2.7,0,0,0,2.8,2.6h0a2.7,2.7,0,0,0,2.9-2.6Z"/>
          <path class="7a075169-d753-4cc3-95f9-03f8f44c5eb7" d="M63.9,20.2c0-.6.1-1.1.1-1.7,0-5.8-4.1-10.6-9.2-10.6H9.2C4.1,7.9,0,12.7,0,18.5a9.7,9.7,0,0,0,.1,1.7Z"/>
          <path class="7a075169-d753-4cc3-95f9-03f8f44c5eb7" d="M42,5.5V4.2A4.5,4.5,0,0,0,37.4,0H26.6A4.5,4.5,0,0,0,22,4.2V5.5Z"/>
        </g>
      </g>
    </g>
  </g>
</svg>
